<svg xmlns="http://www.w3.org/2000/svg" width="512" height="512"><path fill="#045CB0" stroke="#045CB0" d="M242.375 504.508c-1.237-.1-2.475-.254-2.75-.34-.275-.088-2.694-.271-5.375-.408-2.681-.136-5.266-.363-5.745-.503-.478-.141-1.941-.32-3.25-.399-1.309-.08-3.167-.315-4.13-.524-.963-.208-2.845-.477-4.184-.596-1.338-.119-2.637-.326-2.887-.459s-1.404-.36-2.566-.503c-1.162-.142-2.728-.432-3.48-.642-.752-.212-1.739-.384-2.194-.384-.454 0-1.466-.225-2.249-.5-.783-.275-1.777-.5-2.211-.5-.434 0-1.493-.225-2.354-.5s-1.835-.5-2.166-.5c-.33 0-1.006-.17-1.502-.377-.497-.207-1.478-.481-2.18-.607a22.49 22.49 0 0 1-2.402-.592c-.619-.2-1.603-.49-2.188-.644-2.713-.716-3.268-.876-4.437-1.28a42.266 42.266 0 0 0-2.375-.734c-2.483-.664-3.662-1.037-4.413-1.393-.433-.205-.979-.373-1.212-.373-.233 0-.779-.164-1.212-.364-.728-.336-1.291-.55-3.663-1.394a29.711 29.711 0 0 1-1.902-.777c-.566-.256-1.213-.465-1.439-.465-.226 0-.831-.225-1.344-.5-.513-.275-1.103-.501-1.311-.502-.208-.001-.716-.225-1.129-.498-.413-.273-.947-.497-1.189-.498-.241-.001-.858-.227-1.371-.502s-1.103-.501-1.311-.502c-.208-.001-.716-.225-1.129-.498-.413-.273-.975-.5-1.25-.504-.275-.004-.781-.227-1.125-.496s-.832-.492-1.086-.494c-.253-.004-.746-.231-1.096-.506-.349-.275-.813-.5-1.03-.5-.216 0-1.298-.44-2.403-.977a110.114 110.114 0 0 0-2.635-1.248 10.57 10.57 0 0 1-1-.497 11.556 11.556 0 0 0-1-.5 11.007 11.007 0 0 1-1-.5 11.556 11.556 0 0 0-1-.5 11.007 11.007 0 0 1-1-.5 11.556 11.556 0 0 0-1-.5c-.605-.266-.81-.373-1.875-.987a87.636 87.636 0 0 0-2.25-1.192 66.957 66.957 0 0 1-2.75-1.498 40.43 40.43 0 0 0-2-1.099 21.869 21.869 0 0 1-1.75-.997 34.177 34.177 0 0 0-1.53-.936c-1.397-.795-2.707-1.574-3.383-2.013a71.987 71.987 0 0 0-2.275-1.36c-.886-.51-1.754-1.101-1.929-1.312-.176-.211-.422-.384-.549-.384-.126 0-.534-.21-.907-.465a490.246 490.246 0 0 0-3.97-2.638c-1.811-1.195-3.428-2.336-3.593-2.535-.165-.199-.407-.362-.538-.362-.131 0-1.193-.703-2.363-1.562-2.865-2.107-5.826-4.316-6.588-4.916-3.888-3.06-6.302-4.999-7.151-5.745a74.92 74.92 0 0 0-2.117-1.777c-1.554-1.248-6.856-6.018-8.484-7.634-.756-.751-1.461-1.366-1.565-1.366-.247 0-9.683-9.436-9.683-9.683 0-.104-.615-.809-1.366-1.565-1.616-1.628-6.386-6.93-7.634-8.484a74.92 74.92 0 0 0-1.777-2.117c-.746-.849-2.685-3.263-5.745-7.151-.6-.762-2.809-3.723-4.916-6.588-.859-1.17-1.562-2.232-1.562-2.363 0-.131-.163-.373-.362-.538-.199-.165-1.34-1.782-2.535-3.593a490.246 490.246 0 0 0-2.638-3.97c-.255-.373-.465-.781-.465-.907 0-.127-.173-.373-.384-.549-.211-.175-.802-1.043-1.312-1.929a70.833 70.833 0 0 0-1.36-2.275c-.439-.676-1.218-1.986-2.013-3.383a34.177 34.177 0 0 0-.936-1.53c-.271-.413-.719-1.2-.997-1.75a40.43 40.43 0 0 0-1.099-2 66.957 66.957 0 0 1-1.498-2.75 87.636 87.636 0 0 0-1.192-2.25c-.614-1.065-.721-1.27-.987-1.875a11.556 11.556 0 0 0-.5-1 11.007 11.007 0 0 1-.5-1 11.556 11.556 0 0 0-.5-1 11.007 11.007 0 0 1-.5-1 11.556 11.556 0 0 0-.5-1 10.57 10.57 0 0 1-.497-1c-.149-.344-.711-1.529-1.248-2.635-.537-1.105-.977-2.187-.977-2.403 0-.217-.225-.681-.5-1.03-.275-.35-.502-.843-.506-1.096-.002-.254-.225-.742-.494-1.086-.269-.344-.492-.85-.496-1.125-.004-.275-.231-.837-.504-1.25-.273-.413-.497-.907-.498-1.098-.001-.191-.212-.81-.468-1.375-1.268-2.793-1.534-3.44-1.534-3.725 0-.17-.225-.729-.5-1.242s-.5-1.118-.5-1.344c0-.226-.209-.874-.465-1.439a29.95 29.95 0 0 1-.777-1.902c-.844-2.372-1.058-2.935-1.394-3.663-.2-.433-.364-.979-.364-1.212 0-.233-.168-.779-.373-1.212-.356-.751-.729-1.93-1.393-4.413a42.266 42.266 0 0 0-.734-2.375c-.404-1.169-.564-1.724-1.28-4.437a50.216 50.216 0 0 0-.644-2.188 22.49 22.49 0 0 1-.592-2.402c-.126-.702-.4-1.683-.607-2.18-.207-.496-.377-1.172-.377-1.502 0-.331-.225-1.305-.5-2.166s-.5-1.92-.5-2.354c0-.434-.225-1.428-.5-2.211-.275-.783-.5-1.795-.5-2.249 0-.455-.172-1.442-.384-2.194-.21-.752-.5-2.318-.642-3.48-.143-1.162-.37-2.316-.503-2.566s-.34-1.549-.459-2.887c-.119-1.339-.388-3.221-.596-4.184-.209-.963-.444-2.821-.524-4.13-.079-1.309-.258-2.772-.399-3.25-.14-.479-.365-3.064-.501-5.745-.135-2.681-.385-5.325-.556-5.875-.447-1.437-.447-30.313 0-31.75.171-.55.421-3.194.556-5.875.136-2.681.361-5.266.501-5.745.141-.478.32-1.941.399-3.25.08-1.309.315-3.167.524-4.13.208-.963.477-2.845.596-4.184.119-1.338.326-2.637.459-2.887s.36-1.404.503-2.566c.142-1.162.432-2.728.642-3.48.212-.752.384-1.739.384-2.194 0-.454.225-1.466.5-2.249.275-.783.5-1.777.5-2.211 0-.434.225-1.493.5-2.354s.5-1.835.5-2.166c0-.33.17-1.006.377-1.502.207-.497.481-1.478.607-2.18a22.49 22.49 0 0 1 .592-2.402c.2-.619.49-1.603.644-2.188.716-2.713.876-3.268 1.28-4.437.238-.687.568-1.756.734-2.375.664-2.483 1.037-3.662 1.393-4.413.205-.433.373-.979.373-1.212 0-.233.164-.779.364-1.212.339-.735.626-1.491 1.391-3.663.169-.481.519-1.356.777-1.944.257-.588.468-1.236.468-1.438 0-.204.225-.79.5-1.303.275-.513.5-1.072.5-1.242 0-.285.266-.932 1.534-3.725.256-.566.467-1.184.468-1.376.001-.191.225-.684.498-1.097.273-.413.5-.975.504-1.25.004-.275.227-.781.496-1.125s.492-.832.494-1.086c.004-.253.231-.746.506-1.096.275-.349.5-.813.5-1.03 0-.216.44-1.298.977-2.403a110.114 110.114 0 0 0 1.248-2.635c.149-.344.373-.794.497-1 .123-.206.348-.656.5-1 .151-.344.376-.794.5-1 .123-.206.348-.656.5-1 .151-.344.376-.794.5-1 .123-.206.348-.656.5-1 .151-.344.388-.822.526-1.062.618-1.074.801-1.413 1.653-3.063.497-.963 1.171-2.2 1.498-2.75.327-.55.821-1.45 1.099-2s.726-1.337.997-1.75c.271-.413.692-1.101.936-1.53.795-1.397 1.574-2.707 2.013-3.383.237-.366.849-1.389 1.36-2.275.51-.886 1.101-1.754 1.312-1.929.211-.176.384-.422.384-.549 0-.126.21-.534.465-.907.256-.372 1.443-2.159 2.638-3.97 1.195-1.811 2.336-3.428 2.535-3.593.199-.165.362-.407.362-.538 0-.503 7.738-10.745 11.5-15.221a309.901 309.901 0 0 0 2.5-3.011c1.313-1.616 6.079-6.905 7.634-8.471.751-.756 1.366-1.462 1.366-1.568 0-.198 8.656-8.776 11.204-11.103 3.27-2.987 7.511-6.761 8.515-7.577.592-.481 1.947-1.606 3.011-2.5 4.476-3.762 14.718-11.5 15.221-11.5.131 0 .373-.163.538-.362.165-.199 1.782-1.34 3.593-2.535a490.246 490.246 0 0 0 3.97-2.638c.373-.255.781-.465.907-.465.127 0 .373-.173.549-.384.175-.211 1.043-.802 1.929-1.312a71.987 71.987 0 0 0 2.275-1.36c.676-.439 1.986-1.218 3.383-2.013a34.177 34.177 0 0 0 1.53-.936c.413-.271 1.2-.719 1.75-.997a40.43 40.43 0 0 0 2-1.099 66.957 66.957 0 0 1 2.75-1.498c1.65-.852 1.989-1.035 3.063-1.653.24-.138.718-.375 1.062-.526.344-.152.794-.377 1-.5.206-.124.656-.349 1-.5.344-.152.794-.377 1-.5.206-.124.656-.349 1-.5.344-.152.794-.377 1-.5a10.57 10.57 0 0 1 1-.497c.344-.149 1.529-.711 2.635-1.248 1.105-.537 2.187-.977 2.403-.977.217 0 .681-.225 1.03-.5.35-.275.843-.502 1.096-.506.254-.002.742-.225 1.086-.494.344-.269.85-.492 1.125-.496.275-.004.837-.231 1.25-.504.413-.273.906-.497 1.097-.498.354-.002 1.905-.664 3.578-1.526.508-.262 1.128-.476 1.378-.476s.874-.225 1.387-.5 1.118-.5 1.344-.5c.226 0 .873-.209 1.439-.465a29.711 29.711 0 0 1 1.902-.777c2.372-.844 2.935-1.058 3.663-1.394.433-.2.979-.364 1.212-.364.233 0 .779-.168 1.212-.373.751-.356 1.93-.729 4.413-1.393a42.266 42.266 0 0 0 2.375-.734c1.182-.409 1.662-.547 4.375-1.264.619-.163 1.631-.46 2.25-.66a22.49 22.49 0 0 1 2.402-.592c.702-.126 1.683-.4 2.18-.607.496-.207 1.172-.377 1.502-.377.331 0 1.305-.225 2.166-.5s1.92-.5 2.354-.5c.434 0 1.428-.225 2.211-.5.783-.275 1.795-.5 2.249-.5.455 0 1.442-.172 2.194-.384.752-.21 2.318-.5 3.48-.642 1.162-.143 2.316-.37 2.566-.503s1.549-.34 2.887-.459c1.339-.119 3.221-.388 4.184-.596.963-.209 2.821-.444 4.13-.524 1.309-.079 2.772-.258 3.25-.399.479-.14 3.064-.365 5.745-.501 2.681-.135 5.325-.385 5.875-.556 1.437-.447 30.313-.447 31.75 0 .55.171 3.194.421 5.875.556 2.681.136 5.266.361 5.745.501.478.141 1.941.32 3.25.399 1.309.08 3.167.315 4.13.524.963.208 2.845.477 4.184.596 1.338.119 2.637.326 2.887.459s1.404.36 2.566.503c1.162.142 2.728.432 3.48.642.752.212 1.739.384 2.194.384.454 0 1.466.225 2.249.5.783.275 1.777.5 2.211.5.434 0 1.493.225 2.354.5s1.835.5 2.166.5c.33 0 1.006.17 1.502.377.497.207 1.478.481 2.18.607a22.49 22.49 0 0 1 2.402.592c.619.2 1.603.49 2.188.644 2.713.716 3.268.876 4.437 1.28.687.238 1.756.568 2.375.734 2.483.664 3.662 1.037 4.413 1.393.433.205.979.373 1.212.373.233 0 .779.164 1.212.364.735.339 1.491.626 3.663 1.391.481.169 1.356.519 1.944.777.588.257 1.236.468 1.438.468.204 0 .79.225 1.303.5.513.275 1.072.5 1.242.5.285 0 .932.266 3.725 1.534.565.256 1.184.467 1.375.468.191.001.685.225 1.098.498.413.273.975.5 1.25.504.275.004.781.227 1.125.496s.832.492 1.086.494c.253.004.746.231 1.096.506.349.275.813.5 1.03.5.216 0 1.298.44 2.403.977 1.106.537 2.291 1.099 2.635 1.248.344.149.794.373 1 .497.206.123.656.348 1 .5.344.151.794.376 1 .5.206.123.656.348 1 .5.344.151.794.376 1 .5.206.123.656.348 1 .5.344.151.85.405 1.125.566.863.502 1.203.685 3 1.613.963.497 2.2 1.171 2.75 1.498.55.327 1.45.821 2 1.099s1.337.726 1.75.997c.413.271 1.101.692 1.53.936 1.397.795 2.707 1.574 3.383 2.013.365.237 1.389.849 2.275 1.36.886.51 1.754 1.101 1.929 1.312.176.211.422.384.549.384.126 0 .534.21.907.465.372.256 2.159 1.443 3.97 2.638 1.811 1.195 3.428 2.336 3.593 2.535.165.199.407.362.538.362.503 0 10.745 7.738 15.222 11.5 1.063.894 2.418 2.019 3.01 2.5 1.616 1.313 6.905 6.079 8.471 7.634.756.751 1.461 1.366 1.565 1.366.247 0 9.683 9.436 9.683 9.683 0 .104.615.809 1.366 1.565 1.555 1.566 6.321 6.855 7.634 8.471.481.592 1.606 1.947 2.5 3.011 3.762 4.476 11.5 14.718 11.5 15.221 0 .131.163.373.362.538.199.165 1.34 1.782 2.535 3.593a490.246 490.246 0 0 0 2.638 3.97c.255.373.465.781.465.907 0 .127.173.373.384.549.211.175.802 1.043 1.312 1.929a71.987 71.987 0 0 0 1.36 2.275c.439.676 1.218 1.986 2.013 3.383.244.429.665 1.117.936 1.53.271.413.719 1.2.997 1.75s.772 1.45 1.099 2c.327.55 1.001 1.787 1.498 2.75.852 1.65 1.035 1.989 1.653 3.063.138.24.375.718.526 1.062.152.344.377.794.5 1 .124.206.349.656.5 1 .152.344.377.794.5 1 .124.206.349.656.5 1 .152.344.377.794.5 1 .124.206.348.656.497 1 .149.344.711 1.529 1.248 2.635.537 1.105.977 2.187.977 2.403 0 .217.225.681.5 1.03.275.35.502.843.506 1.096.002.254.225.742.494 1.086.269.344.492.85.496 1.125.004.275.231.837.504 1.25.273.413.497.906.498 1.097.001.192.212.81.468 1.376 1.268 2.793 1.534 3.44 1.534 3.725 0 .17.225.729.5 1.242s.5 1.118.5 1.344c0 .226.209.873.465 1.439.256.564.606 1.421.777 1.902.844 2.372 1.058 2.935 1.394 3.663.2.433.364.979.364 1.212 0 .233.168.779.373 1.212.356.751.729 1.93 1.393 4.413.166.619.496 1.688.734 2.375.404 1.169.564 1.724 1.28 4.437.154.585.444 1.569.644 2.188.199.619.466 1.7.592 2.402.126.702.4 1.683.607 2.18.207.496.377 1.172.377 1.502 0 .331.225 1.305.5 2.166s.5 1.92.5 2.354c0 .434.225 1.428.5 2.211.275.783.5 1.795.5 2.249 0 .455.172 1.442.384 2.194.21.752.5 2.318.642 3.48.143 1.162.37 2.316.503 2.566s.34 1.549.459 2.887c.119 1.339.388 3.221.596 4.184.209.963.444 2.821.524 4.13.079 1.309.258 2.772.399 3.25.14.479.365 3.064.501 5.745.135 2.681.385 5.325.556 5.875.233.75.311 4.724.311 15.875s-.078 15.125-.311 15.875c-.171.55-.421 3.194-.556 5.875-.136 2.681-.361 5.266-.501 5.745-.141.478-.32 1.941-.399 3.25-.08 1.309-.315 3.167-.524 4.13-.208.963-.477 2.845-.596 4.184-.119 1.338-.326 2.637-.459 2.887s-.36 1.404-.503 2.566c-.142 1.162-.432 2.728-.642 3.48-.212.752-.384 1.739-.384 2.194 0 .454-.225 1.466-.5 2.249-.275.783-.5 1.777-.5 2.211 0 .434-.225 1.493-.5 2.354s-.5 1.835-.5 2.166c0 .33-.17 1.006-.377 1.502-.207.497-.481 1.478-.607 2.18a22.49 22.49 0 0 1-.592 2.402c-.2.619-.497 1.631-.66 2.25-.717 2.713-.855 3.193-1.264 4.375a42.266 42.266 0 0 0-.734 2.375c-.664 2.483-1.037 3.662-1.393 4.413-.205.433-.373.979-.373 1.212 0 .233-.164.779-.364 1.212-.336.728-.55 1.291-1.394 3.663a29.95 29.95 0 0 1-.777 1.902c-.256.565-.465 1.213-.465 1.439 0 .226-.225.831-.5 1.344-.275.513-.501 1.103-.502 1.311-.001.208-.225.716-.498 1.129-.273.413-.497.947-.498 1.189-.001.24-.227.858-.502 1.371s-.501 1.103-.502 1.311c-.001.208-.225.716-.498 1.129-.273.413-.5.975-.504 1.25-.004.275-.227.781-.496 1.125s-.492.832-.494 1.086c-.004.253-.231.746-.506 1.096-.275.349-.5.813-.5 1.03 0 .216-.44 1.298-.977 2.403a110.114 110.114 0 0 0-1.248 2.635 10.57 10.57 0 0 1-.497 1c-.123.206-.348.656-.5 1-.151.344-.376.794-.5 1-.123.206-.348.656-.5 1-.151.344-.376.794-.5 1-.123.206-.348.656-.5 1-.151.344-.405.85-.566 1.125-.338.581-.409.711-1.556 2.875-.474.894-1.152 2.131-1.507 2.75a54.303 54.303 0 0 0-1.149 2.125c-.276.55-.724 1.337-.995 1.75a34.177 34.177 0 0 0-.936 1.53c-.795 1.397-1.574 2.707-2.013 3.383a70.833 70.833 0 0 0-1.36 2.275c-.51.886-1.101 1.754-1.312 1.929-.211.176-.384.422-.384.549 0 .126-.21.534-.465.907-.256.372-1.443 2.159-2.638 3.97-1.195 1.811-2.336 3.428-2.535 3.593-.199.165-.362.407-.362.538 0 .503-7.738 10.745-11.5 15.222a299.879 299.879 0 0 0-2.5 3.01c-1.313 1.616-6.079 6.905-7.634 8.471-.751.756-1.366 1.461-1.366 1.565 0 .247-9.436 9.683-9.683 9.683-.104 0-.809.615-1.565 1.366-1.566 1.555-6.855 6.321-8.471 7.634-.592.481-1.947 1.606-3.01 2.5-4.477 3.762-14.719 11.5-15.222 11.5-.131 0-.373.163-.538.362-.165.199-1.782 1.34-3.593 2.535a490.246 490.246 0 0 0-3.97 2.638c-.373.255-.781.465-.907.465-.127 0-.373.173-.549.384-.175.211-1.043.802-1.929 1.312a70.833 70.833 0 0 0-2.275 1.36c-.676.439-1.986 1.218-3.383 2.013-.429.244-1.117.665-1.53.936-.413.271-1.2.719-1.75.997s-1.45.772-2 1.099a66.957 66.957 0 0 1-2.75 1.498c-1.65.852-1.989 1.035-3.063 1.653-.24.138-.718.375-1.062.526-.344.152-.794.377-1 .5-.206.124-.656.349-1 .5-.344.152-.794.377-1 .5-.206.124-.656.349-1 .5-.344.152-.794.377-1 .5a10.57 10.57 0 0 1-1 .497c-.344.149-1.529.711-2.635 1.248-1.105.537-2.187.977-2.403.977-.217 0-.681.225-1.03.5-.35.275-.843.502-1.096.506-.254.002-.742.225-1.086.494-.344.269-.85.492-1.125.496-.275.004-.837.231-1.25.504-.413.273-.907.497-1.098.498-.191.001-.81.212-1.375.468-2.793 1.268-3.44 1.534-3.725 1.534-.17 0-.729.225-1.242.5s-1.118.5-1.344.5c-.226 0-.874.209-1.439.465a29.95 29.95 0 0 1-1.902.777c-2.372.844-2.935 1.058-3.663 1.394-.433.2-.979.364-1.212.364-.233 0-.779.168-1.212.373-.751.356-1.93.729-4.413 1.393-.619.166-1.688.496-2.375.734-1.182.409-1.662.547-4.375 1.264-.619.163-1.631.46-2.25.66-.619.199-1.7.466-2.402.592-.702.126-1.683.4-2.18.607-.496.207-1.172.377-1.502.377-.331 0-1.305.225-2.166.5s-1.92.5-2.354.5c-.434 0-1.428.225-2.211.5-.783.275-1.795.5-2.249.5-.455 0-1.442.172-2.194.384-.752.21-2.318.5-3.48.642-1.162.143-2.316.37-2.566.503s-1.549.34-2.887.459c-1.339.119-3.221.388-4.184.596-.963.209-2.821.444-4.13.524-1.309.079-2.772.259-3.25.4-.479.14-3.12.368-5.87.507s-5.281.38-5.625.536c-.728.331-25.931.507-29.625.207m12.141-38.902c.224-.27.568-.351 1.093-.256 2.706.488 7.802.629 14.266.394 11.297-.409 13.882-.553 14.021-.778.072-.117.124-3.56.114-7.652-.017-6.84.177-16.69.658-33.439.212-7.388.164-54.645-.057-55.673-.091-.425-.267-.626-.477-.546-.58.223-.632-.267-.382-3.564.598-7.891 1.043-15.575 1.147-19.842.202-8.232 1.254-23.461 1.649-23.875.405-.423 6.266 6.09 16.368 18.19l7.464 8.939-.128 1.691c-.139 1.846.063 5.94.495 10.055.151 1.444.328 4.2.392 6.125.065 1.925.225 3.894.359 4.375.314 1.14 1.038 10.367.85 10.854-.079.207-.015.765.142 1.242.158.476.331 2.14.386 3.698.16 4.496.393 7.52.642 8.332.217.707.313 2.062.595 8.374.065 1.444.237 3.131.383 3.75.146.619.262 1.406.256 1.75-.005.344.04 1.469.1 2.5.278 4.768.459 6.952.654 7.875.318 1.499.725 6.515.879 10.825.075 2.103.241 4.097.367 4.431.127.333.297 1.98.378 3.659.082 1.679.189 3.12.24 3.201.16.259.82 9.289.857 11.725.019 1.287.145 2.545.279 2.796.134.25.244.912.244 1.472 0 .951.046 1.016.714 1.016.638 0 3.798-1.075 10.668-3.628 4.453-1.655 11.101-4.626 17.243-7.708 6.055-3.038 14.676-7.651 16.783-8.981l1.031-.651-.097-2.204c-.095-2.161-.34-9.789-1.351-42.078-.277-8.869-.487-16.8-.464-17.625.022-.825-.085-4.2-.238-7.5-.153-3.3-.309-6.87-.347-7.933l-.07-1.933 1.314-.534c1.898-.77 5.997-3.251 7.358-4.453.644-.568 1.231-.934 1.306-.813.121.196-.37 10.287-1.096 22.541-.142 2.406-.429 7.75-.638 11.875-1.594 31.573-1.854 36.413-1.994 37.039-.066.297-.178 2.312-.249 4.479-.072 2.183-.247 4.08-.393 4.255-.375.454-.177 2.131.286 2.421 1.029.644 18.179-12.093 27.984-20.782 6.044-5.357 16.739-16.425 22.019-22.787 4.385-5.284 9.631-12.161 10.465-13.721.342-.639.344-1.779.003-1.779-.161 0-.258-.702-.25-1.812.008-.998-.147-4.176-.342-7.063-.493-7.258-.894-14.189-1.028-17.75-.063-1.65-.171-3.45-.243-4-.071-.55-.412-5.669-.758-11.375-.614-10.146-1.627-25.895-2.114-32.875-.286-4.113-.951-16.471-.934-17.375.007-.344-.118-1.806-.278-3.25-.288-2.61-.664-8.354-1.409-21.5a860.138 860.138 0 0 0-.625-10.125c-.129-1.787-.169-3.565-.089-3.95.08-.385.017-1.341-.141-2.125-.157-.784-.508-5.419-.779-10.3-.271-4.881-.616-10.844-.767-13.25-.15-2.406-.328-5.388-.394-6.625s-.446-7.313-.844-13.5c-.398-6.187-.842-13.106-.984-15.375a696.964 696.964 0 0 0-.507-7.375c-.136-1.787-.475-7.187-.753-12-.279-4.813-.671-11.281-.871-14.375-.2-3.094-.539-9-.754-13.125-.215-4.125-.555-9.637-.755-12.25-.2-2.613-.365-5.349-.366-6.082L413 115.96l-4.438-4.62c-4.236-4.41-10.132-10.009-14.437-13.708-1.1-.946-2.45-2.14-3-2.655-2.713-2.539-4.787-4.225-5.125-4.164-.266.047-.39.43-.426 1.314-.349 8.483-.897 19.817-.971 20.069-.052.177-.152 1.942-.223 3.922-.071 1.98-.466 9.991-.877 17.803-.411 7.812-.975 18.873-1.254 24.579-.279 5.706-.671 13.3-.871 16.875-.2 3.575-.44 8.435-.533 10.8l-.171 4.3-.899-.394c-2.792-1.225-6.966-2.853-9.15-3.57-1.375-.451-2.63-.948-2.789-1.103-.159-.156-.473-1.689-.698-3.408-1.048-8.008-2.229-13.448-3.93-18.104-1.148-3.144-3.297-7.692-4.471-9.463-.64-.966-.733-1.262-.487-1.559.227-.273.263-1.487.142-4.807-.366-10.081-.696-16.204-.882-16.399-.109-.113.072-1.238.402-2.5.712-2.722 2.185-11.216 2.587-14.918.157-1.444.348-5.892.425-9.886.15-7.752-.079-11.211-.923-13.923-.609-1.955-1.072-2.441-2.327-2.441h-.998l.163-5.312c.197-6.414.251-11.184.127-11.298-.285-.264-12.754-6.377-16.336-8.011-12.342-5.628-26.174-10.266-39.491-13.241-2.193-.49-4.499-.943-5.125-1.006-.626-.062-2.89-.396-5.03-.742-11.228-1.815-21.318-2.595-34.96-2.703l-7.852-.062-.032 1.875c-.053 3.102-.384 16.089-.635 24.875-.21 7.368-.347 9.551-.618 9.821-.045.046-.736-.845-1.535-1.978-.798-1.134-2.088-2.737-2.864-3.563-1.365-1.453-1.451-1.501-2.637-1.479-3.607.068-7.571 3.154-11.437 8.899-.666.99-2.273 3.994-3.572 6.675-1.298 2.681-2.453 5.042-2.565 5.247-.227.416-5.673 3.211-6.305 3.237-.504.02-.696-1.19-.866-5.484-.068-1.719-.194-3.294-.28-3.5-.086-.206-.239-1.669-.34-3.25-.1-1.581-.308-3.929-.46-5.217-.292-2.456-.68-7.346-1.035-13.033-.116-1.856-.326-4.106-.466-5-.14-.894-.314-3.031-.387-4.75-.267-6.354-.44-8.232-.783-8.516-.355-.295-2.005.017-8.23 1.554-8.889 2.194-22.753 7.031-32.5 11.339-16.706 7.384-35.677 19.095-49.625 30.634l-1.125.931.085 3.592c.191 8.044.641 18.978.929 22.591.066.825.231 4.144.366 7.375.769 18.309 1.259 30.525 1.271 31.625.022 2.19.216 6.63.465 10.625.287 4.62 1.234 27.848 1.417 34.75.07 2.681.227 6.675.346 8.875.12 2.2.282 6.475.361 9.5.078 3.025.253 7.356.389 9.625s.419 8.625.628 14.125c.209 5.5.599 15.344.866 21.875.267 6.531.556 14.462.641 17.625.086 3.163.256 7.775.379 10.25.122 2.475.213 5.981.2 7.791-.013 1.81.037 3.39.112 3.51.074.121.259 4.49.411 9.709.151 5.219.389 10.939.526 12.71.138 1.771.201 3.271.139 3.333-.14.139-.354-.951-1.758-8.928-2.418-13.739-3.405-19.692-3.526-21.25-.068-.894-.234-1.962-.366-2.375-.133-.413-.301-1.389-.374-2.17-.073-.781-.418-3.088-.766-5.125-.349-2.038-1.306-7.642-2.126-12.455-.82-4.813-1.886-11-2.368-13.75-2.001-11.41-7.074-42.381-7.495-45.75a30.214 30.214 0 0 0-.521-2.75 21.628 21.628 0 0 1-.469-3c-.057-.825-.383-3.244-.725-5.375-.342-2.131-1.591-9.95-2.776-17.375-1.184-7.425-2.257-13.687-2.383-13.916-.127-.229-.25-.903-.274-1.5-.076-1.881-1.719-12.151-6.134-38.334-1.576-9.35-2.955-17.281-3.063-17.625-.341-1.076-.907-.868-2.17.8-.656.866-2.226 2.925-3.489 4.575-5.185 6.777-9.191 12.667-13.577 19.961-3.258 5.418-3.259 5.421-3.138 6.73.068.72.224 3.053.349 5.184.125 2.131.34 4.606.478 5.5.139.894.366 3.762.505 6.375.14 2.613.413 5.65.607 6.75.194 1.1.359 2.965.367 4.145.009 1.179.134 2.457.28 2.839.145.382.314 1.849.376 3.261.124 2.833.454 5.978 1.021 9.7.204 1.345.379 3.247.389 4.228.009.98.109 1.961.222 2.18.208.401.654 5.164.735 7.86.025.804.153 1.747.285 2.096.133.348.293 1.772.356 3.162.16 3.552.351 5.488.753 7.654.397 2.132 1.584 15.047 1.608 17.482.008.883.123 2.008.255 2.5.295 1.102 1.061 8.976.899 9.239-.065.105.04 1.094.233 2.197.192 1.104.417 3.626.5 5.607.082 1.98.257 3.937.388 4.35.13.413.523 3.9.872 7.75s.845 9.194 1.102 11.875c.257 2.681.479 5.438.493 6.125.014.687.187 2.713.386 4.5s.484 4.6.633 6.25c.149 1.65.424 3.9.61 5 .187 1.1.351 2.842.364 3.871.014 1.028.133 2.21.264 2.625.323 1.017.731 4.907 1.024 9.754.134 2.2.345 4.337.471 4.75.125.413.295 1.425.377 2.25.315 3.171 2.424 24.939 2.773 28.625.202 2.131.583 6.069.846 8.75s.489 5.686.502 6.678c.013.991.121 2.06.239 2.374.118.316.464 3.273.767 6.573.304 3.3.628 6.251.72 6.558.441 1.465 14.657 16.387 21.168 22.217 8.291 7.425 18.078 14.704 29.257 21.76 2.58 1.629 10.376 6.094 13.743 7.871 7.217 3.811 10.59 5.247 10.637 4.531.007-.102.051-1.424.098-2.937.257-8.229.477-13.047.615-13.429.133-.368.384-.27 1.777.704 3.03 2.114 10.997 7.115 14.943 9.379 8.057 4.622 18.215 9.484 27.68 13.247l4.25 1.69v3.378c0 2.286.097 3.476.299 3.678.164.166.937.336 1.717.379.78.043 3.233.305 5.451.581 8.936 1.112 13.603 1.427 21.94 1.481 4.875.032 5.702-.017 5.984-.357M78.868 368.511c.082-.132.034-1.454-.105-2.938-.139-1.484-.307-5.117-.372-8.073a488.534 488.534 0 0 0-.38-10.75c-.501-10.279-1.03-22.148-1.155-25.875-.193-5.809-.322-8.458-.592-12.25-.138-1.925-.37-6.537-.515-10.25-.289-7.393-.542-13.385-1.135-26.875-.214-4.881-.368-9.494-.342-10.25.026-.756-.076-3.175-.228-5.375-.151-2.2-.452-8.331-.667-13.625-.216-5.294-.612-14.856-.88-21.25-.966-23.022-1.488-36.267-1.745-44.25-.144-4.469-.316-9.7-.38-11.625-.213-6.279-.432-7.431-1.256-6.592-.588.599-5.785 11.212-7.207 14.717-2.483 6.12-5.263 14.08-7.377 21.125-1.249 4.159-2.783 9.93-2.911 10.948-.066.527-.22 1.148-.342 1.38-.492.938-3.016 13.423-3.143 15.547-.116 1.936-1.116 10.024-1.52 12.286-.213 1.188-.427 3.438-.476 5-.05 1.561-.227 6.05-.394 9.976-.236 5.516-.239 8.694-.014 14 .426 10.032.718 14.718.998 15.988.136.619.253 1.813.259 2.654.013 1.751.738 7.34 1.521 11.727 4.492 25.139 13.17 47.786 27.178 70.931 2.206 3.646 2.792 4.327 3.18 3.699m369.669-26.514c4.253-9.371 8.674-21.689 10.943-30.497 2.713-10.529 5.514-25.436 5.524-29.407.002-.807.162-2.143.356-2.967.194-.824.292-1.805.217-2.18-.075-.374-.053-.881.049-1.126.103-.244.218-1.232.257-2.195.039-.963.2-3.494.359-5.625.424-5.709.368-18.18-.11-24.25a858.456 858.456 0 0 1-.626-8.5c-.23-3.482-.564-5.982-1.002-7.494-.138-.479-.324-1.772-.412-2.876-.088-1.102-.251-2.184-.363-2.402-.112-.218-.262-1.174-.333-2.125-.271-3.588-2.167-12.405-4.519-21.013-5.154-18.867-14.285-39.114-25.465-56.465-5.498-8.533-16.06-22.898-16.966-23.075-.57-.111-.75.652-.458 1.936.248 1.096 2.144 15.321 2.384 17.889.064.687.328 2.713.588 4.5.44 3.019 1.132 8.503 1.405 11.125.065.619.455 3.262.869 5.875.413 2.613.819 5.763.903 7 .084 1.237.263 2.756.399 3.375.419 1.911.946 5.814.955 7.079.005.662.116 1.404.247 1.649.131.244.304 1.502.385 2.796.081 1.293.299 2.97.486 3.726.186.756.401 2.276.477 3.378.077 1.101.314 2.671.526 3.49.214.818.392 2.054.397 2.747.005.693.18 2.16.391 3.26.21 1.1.432 2.731.492 3.625.061.894.279 2.356.484 3.25.206.894.496 2.75.645 4.125.149 1.375.373 2.894.5 3.375.232.882 1.647 10.803 1.849 12.962.06.64.341 2.738.624 4.663 1.196 8.139 2.019 14.375 2.134 16.173.068 1.057.238 2.225.378 2.594.141.369.319 1.529.397 2.577.218 2.953 1.318 10.977 1.745 12.735.211.868.355 1.824.321 2.125-.034.3.012.771.103 1.046.188.569.682 4.396.802 6.214.133 2.016.891 7.007 1.132 7.455.124.231.295 1.468.38 2.748.084 1.281.25 2.446.369 2.589.119.143.231.819.249 1.502.048 1.829.538 5.703.756 5.992.105.137.26 1.319.346 2.625.086 1.306.431 4.456.768 7 .336 2.544 1.01 7.831 1.496 11.75.488 3.919 1.052 7.871 1.254 8.783.203.912.433 2.655.512 3.875.202 3.152 1.68 14.662 1.995 15.548.065.182.313.293.553.247.285-.055.926-1.164 1.853-3.206"/><path fill="#029BC2" stroke="#029BC2" d="M318.75 456.234c0-.56-.11-1.222-.244-1.472-.134-.251-.26-1.509-.279-2.796-.037-2.436-.697-11.466-.857-11.725-.051-.081-.158-1.522-.24-3.201-.081-1.679-.251-3.326-.378-3.659-.126-.334-.292-2.328-.367-4.431-.154-4.31-.561-9.326-.879-10.825-.195-.923-.376-3.107-.654-7.875-.06-1.031-.105-2.156-.1-2.5.006-.344-.11-1.131-.256-1.75-.146-.619-.318-2.306-.383-3.75-.282-6.312-.378-7.667-.595-8.374-.249-.812-.482-3.836-.642-8.332-.055-1.558-.228-3.222-.386-3.698-.157-.477-.221-1.035-.142-1.242.188-.487-.536-9.714-.85-10.854-.134-.481-.294-2.45-.359-4.375-.064-1.925-.241-4.681-.392-6.125-.597-5.686-.744-11.53-.288-11.483.091.009 1.291 1.362 2.666 3.007 2.974 3.557 6.299 6.978 7.761 7.984.581.399 1.941 1.039 3.022 1.422l1.967.695 8.75-.004c5.646-.003 9.725-.121 11.5-.333 6.191-.74 10.047-1.478 14.088-2.692 1.149-.345 2.161-.556 2.25-.467.178.176.862 14.585.807 16.996-.018.825.194 8.756.471 17.625 1.011 32.289 1.256 39.917 1.351 42.078l.097 2.204-1.031.651c-2.107 1.33-10.728 5.943-16.783 8.981-6.142 3.082-12.79 6.053-17.243 7.708-6.87 2.553-10.03 3.628-10.668 3.628-.668 0-.714-.065-.714-1.016M167.375 447.37c-.687-.325-2.037-.96-3-1.41-3.965-1.856-14.42-7.663-18.993-10.55-11.179-7.056-20.966-14.335-29.257-21.76-6.511-5.83-20.727-20.752-21.168-22.217-.092-.307-.416-3.258-.72-6.558-.303-3.3-.649-6.257-.767-6.573-.118-.314-.226-1.383-.239-2.374-.013-.992-.239-3.997-.502-6.678s-.644-6.619-.846-8.75c-.349-3.686-2.458-25.454-2.773-28.625-.082-.825-.252-1.837-.377-2.25-.126-.413-.337-2.55-.471-4.75-.293-4.847-.701-8.737-1.024-9.754-.131-.415-.25-1.597-.264-2.625-.013-1.029-.177-2.771-.364-3.871-.186-1.1-.461-3.35-.61-5-.149-1.65-.434-4.463-.633-6.25s-.372-3.813-.386-4.5c-.014-.687-.236-3.444-.493-6.125s-.753-8.025-1.102-11.875c-.349-3.85-.742-7.337-.872-7.75-.131-.413-.306-2.37-.388-4.35-.083-1.981-.308-4.503-.5-5.607-.193-1.103-.298-2.092-.233-2.197.162-.263-.604-8.137-.899-9.239-.132-.492-.247-1.617-.255-2.5-.024-2.435-1.211-15.35-1.608-17.482-.402-2.166-.593-4.102-.753-7.654-.063-1.39-.223-2.814-.356-3.162-.132-.349-.26-1.292-.285-2.096-.081-2.696-.527-7.459-.735-7.86-.113-.219-.213-1.2-.222-2.18-.01-.981-.185-2.883-.389-4.228-.567-3.722-.897-6.867-1.021-9.7-.062-1.412-.231-2.879-.376-3.261-.146-.382-.271-1.66-.28-2.839-.008-1.18-.173-3.045-.367-4.145-.194-1.1-.467-4.137-.607-6.75-.139-2.613-.366-5.481-.505-6.375-.138-.894-.353-3.369-.478-5.5s-.281-4.464-.349-5.184c-.121-1.309-.12-1.312 3.138-6.73 4.386-7.294 8.392-13.184 13.577-19.961 1.263-1.65 2.833-3.709 3.489-4.575 1.263-1.668 1.829-1.876 2.17-.8.108.344 1.487 8.275 3.063 17.625 4.415 26.183 6.058 36.453 6.134 38.334.024.597.147 1.271.274 1.5.126.229 1.199 6.491 2.383 13.916 1.185 7.425 2.434 15.244 2.776 17.375.342 2.131.668 4.55.725 5.375.057.825.268 2.175.469 3 .2.825.435 2.063.521 2.75.421 3.369 5.494 34.34 7.495 45.75.482 2.75 1.548 8.937 2.368 13.75.82 4.813 1.777 10.417 2.126 12.455.348 2.037.693 4.344.766 5.125.073.781.241 1.757.374 2.17.132.413.298 1.481.366 2.375.121 1.558 1.108 7.511 3.526 21.25 1.404 7.977 1.618 9.067 1.758 8.928.062-.062-.001-1.562-.139-3.333-.137-1.771-.375-7.491-.526-12.71-.152-5.219-.337-9.588-.411-9.709-.075-.12-.125-1.7-.112-3.51.013-1.81-.078-5.316-.2-7.791a560.626 560.626 0 0 1-.379-10.25c-.085-3.163-.374-11.094-.641-17.625-.267-6.531-.657-16.375-.866-21.875-.209-5.5-.492-11.856-.628-14.125s-.311-6.6-.389-9.625c-.079-3.025-.241-7.3-.361-9.5a387.78 387.78 0 0 1-.346-8.875c-.183-6.902-1.13-30.13-1.417-34.75-.249-3.995-.443-8.435-.465-10.625-.012-1.1-.502-13.316-1.271-31.625-.135-3.231-.3-6.55-.366-7.375-.288-3.613-.738-14.547-.929-22.591l-.085-3.592 1.125-.931c13.948-11.539 32.919-23.25 49.625-30.634 9.747-4.308 23.611-9.145 32.5-11.339 6.225-1.537 7.875-1.849 8.23-1.554.343.284.516 2.162.783 8.516.073 1.719.247 3.856.387 4.75.14.894.35 3.144.466 5 .355 5.687.743 10.577 1.035 13.033.152 1.288.352 3.636.442 5.217.092 1.581.238 2.989.327 3.128.089.14.231 1.827.316 3.75.085 1.924.249 3.979.365 4.568.24 1.226.787.784-4.726 3.814-3.838 2.108-10.788 6.467-15.25 9.564-15.012 10.417-23.825 18.407-28.057 25.437-7.481 12.426-11.276 28.788-12.185 52.54-.453 11.825.284 24.183 2.637 44.199 2.16 18.373 4.091 32.181 6.485 46.381.882 5.229 2.122 12.935 2.757 17.125 1.324 8.738 1.393 11.581.362 14.869-1.247 3.977-4.129 8.267-8.106 12.069-3.053 2.919-4.632 3.979-9.123 6.123-4.602 2.197-7.79 4.07-10.129 5.952-4.307 3.465-9.819 10.211-14.897 18.231-1 1.581-2.072 3.269-2.38 3.75-.992 1.55-3.226 5.556-4.532 8.125-1.449 2.85-3.916 8.376-3.906 8.75.003.137 1.393 2.106 3.088 4.375 9.754 13.054 19.578 23.646 32.236 34.753 3.496 3.067 12.784 10.488 17.18 13.725l3.534 2.604-.11 1.646c-.279 4.206-.605 14.068-.471 14.284.082.134.078.466-.009.74-.206.65-.924.612-2.499-.132M75.688 364.812C61.68 341.667 53.002 319.02 48.51 293.881c-.783-4.387-1.508-9.976-1.521-11.727-.006-.841-.123-2.035-.259-2.654-.28-1.27-.572-5.956-.998-15.988-.225-5.306-.222-8.484.014-14 .167-3.926.344-8.415.394-9.976.049-1.562.263-3.812.476-5 .404-2.262 1.404-10.35 1.52-12.286.127-2.124 2.651-14.609 3.143-15.547.122-.232.276-.853.342-1.38.128-1.018 1.662-6.789 2.911-10.948 2.114-7.045 4.894-15.005 7.377-21.125 1.422-3.505 6.619-14.118 7.207-14.717.824-.839 1.043.313 1.256 6.592.064 1.925.236 7.156.38 11.625.257 7.983.779 21.228 1.745 44.25.268 6.394.664 15.956.88 21.25.215 5.294.516 11.425.667 13.625.152 2.2.254 4.619.228 5.375-.026.756.128 5.369.342 10.25.593 13.49.846 19.482 1.135 26.875.145 3.713.377 8.325.515 10.25.27 3.792.399 6.441.592 12.25.125 3.727.654 15.596 1.155 25.875.144 2.956.315 7.794.38 10.75.065 2.956.233 6.589.372 8.073.415 4.423 0 4.321-3.075-.761M266.11 465.35c.865-2.135 6.863-23.463 8.887-31.6 2.421-9.732 3.213-14.322 4.878-28.25.519-4.335 2.43-23.526 3.151-31.634.504-5.657.6-6.259 1.008-6.259.279 0 .501.24.586.634.214 1 .255 48.413.048 55.634-.481 16.749-.675 26.599-.658 33.439.01 4.092-.042 7.536-.115 7.654-.146.236-3.781.439-12.373.692-5.438.159-5.598.15-5.412-.31M368.3 433.7c-.361-.362-.399-2.001-.054-2.346.136-.136.305-2.025.376-4.198.072-2.174.184-4.195.25-4.492.14-.626.4-5.466 1.994-37.039.209-4.125.496-9.469.638-11.875.691-11.656 1.22-22.34 1.114-22.511-.064-.104.53-.905 1.32-1.779 1.994-2.205 3.118-3.793 4.131-5.836 2.169-4.375 2.558-6.994 2.352-15.87-.159-6.846-.255-7.929-1.913-21.379-1.116-9.06-1.484-12.34-2.396-21.36-.605-5.989-.62-6.455-.256-8 .238-1.01.578-5.143.887-10.765.275-5.019.615-10.925.755-13.125.14-2.2.365-5.856.5-8.125.134-2.269.47-7.838.746-12.375.632-10.402 1.006-18.423.869-18.644-.058-.094 1.046-.775 2.453-1.513 3.684-1.932 6.803-4.045 8.772-5.941 2.51-2.418 4.662-5.356 4.662-6.366 0-1.009-7.442-5.973-12.984-8.661l-1.805-.875.151-4.375c.083-2.406.315-7.3.515-10.875.201-3.575.593-11.169.872-16.875.279-5.706.843-16.767 1.254-24.579.411-7.812.806-15.823.877-17.803.071-1.98.171-3.745.223-3.922.074-.252.622-11.586.971-20.069.036-.884.16-1.267.426-1.314.338-.061 2.412 1.625 5.125 4.164.55.515 1.9 1.709 3 2.655 4.305 3.699 10.201 9.298 14.437 13.708l4.438 4.62.002 1.333c.001.733.166 3.469.366 6.082.2 2.613.54 8.125.755 12.25.215 4.125.554 10.031.754 13.125.2 3.094.592 9.562.871 14.375.278 4.813.617 10.213.753 12 .136 1.787.364 5.106.507 7.375.142 2.269.586 9.188.984 15.375.398 6.187.778 12.263.844 13.5.066 1.237.244 4.219.394 6.625.151 2.406.496 8.369.767 13.25s.622 9.516.779 10.3c.158.784.221 1.74.141 2.125-.08.385-.04 2.163.089 3.95.13 1.787.411 6.344.625 10.125.745 13.146 1.121 18.89 1.409 21.5.16 1.444.285 2.906.278 3.25-.017.904.648 13.262.934 17.375.487 6.98 1.5 22.729 2.114 32.875.346 5.706.687 10.825.758 11.375.072.55.18 2.35.243 4 .134 3.561.535 10.492 1.028 17.75.195 2.887.35 6.065.342 7.063-.008 1.11.089 1.812.25 1.812.341 0 .339 1.14-.003 1.779-.416.779-4.131 5.853-6.201 8.471-6.013 7.605-11.304 13.478-18.82 20.889-7.729 7.623-13.18 12.317-22.471 19.354-4.589 3.475-12.242 8.757-12.69 8.757-.111 0-.337-.135-.502-.3M357.117 152.071c-.389-.52-1.86-2.127-3.27-3.571l-2.563-2.625 1.684-3.375c1.686-3.38 3.122-6.866 3.939-9.566.24-.792.519-1.355.619-1.25.218.227.694 10.346.785 16.667.044 3.095-.021 4.505-.212 4.571-.152.053-.594-.33-.982-.851M239.5 465.73c-3.982-.232-7.394-.562-12.908-1.248-2.218-.276-4.662-.537-5.429-.58-2.135-.118-2.148-.144-1.985-3.98.077-1.813.154-3.317.171-3.341.017-.024 1.155.348 2.529.827 8.971 3.13 20.147 5.934 29.313 7.355 2.951.458 3.517.612 3.282.895-.227.273-1.425.334-5.941.305-3.111-.02-7.176-.125-9.032-.233M446.131 344.956c-.315-.886-1.793-12.396-1.995-15.548-.079-1.22-.309-2.963-.512-3.875-.202-.912-.766-4.864-1.254-8.783-.486-3.919-1.16-9.206-1.496-11.75-.337-2.544-.682-5.694-.768-7-.086-1.306-.241-2.488-.346-2.625-.218-.289-.708-4.163-.756-5.992-.018-.683-.13-1.359-.249-1.502-.119-.143-.285-1.308-.369-2.589-.085-1.28-.256-2.517-.38-2.748-.241-.448-.999-5.439-1.132-7.455-.12-1.818-.614-5.645-.802-6.214a2.927 2.927 0 0 1-.103-1.046c.034-.301-.11-1.257-.321-2.125-.427-1.758-1.527-9.782-1.745-12.735-.078-1.048-.256-2.208-.397-2.577-.14-.369-.31-1.537-.378-2.594-.115-1.798-.938-8.034-2.134-16.173-.283-1.925-.564-4.023-.624-4.663-.202-2.159-1.617-12.08-1.849-12.962-.127-.481-.351-2-.5-3.375-.149-1.375-.439-3.231-.645-4.125a25.294 25.294 0 0 1-.484-3.25c-.06-.894-.282-2.525-.492-3.625-.211-1.1-.386-2.567-.391-3.26-.005-.693-.183-1.929-.397-2.747-.212-.819-.449-2.389-.526-3.49-.076-1.102-.291-2.622-.477-3.378-.187-.756-.405-2.433-.486-3.726-.081-1.294-.254-2.552-.385-2.796-.131-.245-.242-.987-.247-1.649-.009-1.265-.536-5.168-.955-7.079-.136-.619-.315-2.138-.399-3.375-.084-1.237-.49-4.387-.903-7-.414-2.613-.804-5.256-.869-5.875-.273-2.622-.965-8.106-1.405-11.125-.26-1.787-.524-3.813-.588-4.5-.24-2.568-2.136-16.793-2.384-17.889-.292-1.284-.112-2.047.458-1.936.906.177 11.468 14.542 16.966 23.075 11.18 17.351 20.311 37.598 25.465 56.465 2.352 8.608 4.248 17.425 4.519 21.013.071.951.221 1.907.333 2.125.112.218.275 1.3.363 2.402.088 1.104.274 2.397.412 2.876.438 1.512.772 4.012 1.002 7.494.123 1.856.404 5.681.626 8.5.478 6.07.534 18.541.11 24.25-.159 2.131-.32 4.662-.359 5.625-.039.963-.154 1.951-.257 2.195-.102.245-.124.752-.049 1.126.075.375-.023 1.356-.217 2.18-.194.824-.354 2.16-.356 2.967-.005 1.752-.476 5.067-1.657 11.657-2.662 14.857-6.147 27.206-11.219 39.75-3.145 7.777-4.925 11.603-5.444 11.703-.24.046-.488-.065-.553-.247M322.092 109.372c.079-.208.433-2.486.786-5.062.352-2.577.803-5.81 1.001-7.185.799-5.527 3.371-25.433 3.371-26.085 0-.564-.095-.547-29.375 5.237-19.355 3.824-31.002 6.165-40.941 8.229-3.956.822-7.282 1.494-7.392 1.494-.243 0-2.815-3.644-2.673-3.786.29-.29.422-2.33.636-9.839.251-8.786.582-21.773.635-24.875l.032-1.875 7.852.062c13.642.108 23.732.888 34.96 2.703 2.14.346 4.404.68 5.03.742.626.063 2.932.516 5.125 1.006 13.317 2.975 27.149 7.613 39.491 13.241 3.582 1.634 16.051 7.747 16.336 8.011.123.113.07 4.88-.126 11.271l-.162 5.286-1.476.313c-2.906.617-9.47 4.175-17.202 9.324-5.416 3.606-8.784 6.206-13.404 10.348-1.95 1.748-2.813 2.244-2.504 1.44"/><path fill="#045CB0" stroke="#045CB0" d="M375.428 277.75c-.075-.206-.199-.994-.276-1.75-1.453-14.367-1.962-19.735-2.275-24-.512-6.982-.919-21.264-.828-28.997l.076-6.372 1.375-.461c.756-.254 2.414-.866 3.685-1.36 1.27-.494 2.36-.848 2.422-.786.149.149-.227 8.06-.98 20.601-.744 12.397-.809 13.453-1.125 18.375a2167.9 2167.9 0 0 0-.768 13.25c-.47 8.474-.931 12.533-1.306 11.5"/><path stroke="#000" d="M260.625 465.836c-7.913-.631-15.317-1.889-24.25-4.121-13.076-3.267-25.721-8.09-39.625-15.115-14.222-7.184-24.523-13.913-38.863-25.384-16.32-13.056-28.468-25.533-40.373-41.466-1.695-2.269-3.085-4.238-3.088-4.375-.01-.374 2.457-5.9 3.906-8.75 1.306-2.569 3.54-6.575 4.532-8.125.308-.481 1.38-2.169 2.38-3.75 5.078-8.02 10.59-14.766 14.897-18.231 2.339-1.882 5.527-3.755 10.129-5.952 4.491-2.144 6.07-3.204 9.123-6.123 3.977-3.802 6.859-8.092 8.106-12.069 1.031-3.288.962-6.131-.362-14.869-.635-4.19-1.875-11.896-2.757-17.125-3.548-21.042-7.116-49.015-8.626-67.631-.529-6.52-.744-16.474-.496-22.949.909-23.752 4.704-40.114 12.185-52.54 3.501-5.815 9.848-12.025 20.182-19.747 10.918-8.158 21.249-14.642 30.75-19.3 3.738-1.834 3.676-1.798 3.911-2.231a493.63 493.63 0 0 0 2.556-5.233c1.299-2.681 2.906-5.685 3.572-6.675 3.868-5.749 7.83-8.83 11.442-8.899 1.206-.022 1.264.012 2.75 1.614.836.9 2.69 3.34 4.121 5.423 1.431 2.083 2.695 3.787 2.809 3.787.114 0 3.442-.672 7.398-1.494 9.939-2.064 21.586-4.405 40.941-8.229 29.28-5.784 29.375-5.801 29.375-5.237 0 .652-2.572 20.558-3.371 26.085-.198 1.375-.649 4.608-1.001 7.185-.353 2.576-.707 4.854-.786 5.062-.309.804.554.308 2.504-1.44 7.623-6.834 18.17-14.054 26.029-17.822 3.495-1.676 4.899-2.11 6.822-2.11 1.506 0 1.916.392 2.554 2.441.843 2.71 1.073 6.172.924 13.923-.155 8.05-.334 10.138-1.446 16.886-1.52 9.215-3.127 14.464-6.507 21.245l-1.679 3.37 2.792 2.88c3.175 3.276 4.841 5.642 6.768 9.612 3.229 6.656 4.869 12.825 6.285 23.643.225 1.719.539 3.252.698 3.408.159.155 1.245.592 2.414.971 8.55 2.771 18.605 7.971 24.062 12.444.654.535 1.188 1.137 1.188 1.338 0 1.013-2.16 3.96-4.661 6.357-3.637 3.488-10.803 7.477-17.339 9.655l-1.375.458-.076 6.372c-.091 7.733.316 22.015.828 28.997.343 4.681 1.945 21.421 2.248 23.5.07.481.466 4.25.879 8.375 1.014 10.111 1.352 13.142 2.504 22.5 1.658 13.45 1.754 14.533 1.913 21.379.165 7.118-.023 9.551-.965 12.496-.756 2.366-2.063 4.88-3.572 6.875-5.278 6.979-12.535 10.79-24.009 12.609-6.268.993-8.383 1.133-17.25 1.137l-8.75.004-1.978-.699c-4.03-1.425-4.795-2.202-19.343-19.635-5.461-6.544-11.11-13.181-12.554-14.75a2894.738 2894.738 0 0 1-3.915-4.259c-.849-.927-1.372-1.322-1.533-1.157-.399.411-1.441 15.481-1.659 24-.067 2.613-.291 7.281-.497 10.375-1.19 17.812-1.163 17.49-2.907 35.25-2.36 24.046-3.498 31.714-6.492 43.75-2.015 8.102-7.572 27.931-8.811 31.438l-.286.812-2.138-.042c-1.175-.023-2.587-.078-3.137-.122m-31.381-24.593c-1.398-1.614-5.894-6.55-10.375-11.391l-2.755-2.977-11.588-23.125c-11.854-23.655-14.458-28.783-18.277-36l-2.183-4.125-.539-3.875c-.852-6.122-5.532-36.796-5.738-37.604-.173-.68-.252-.571-1.158 1.59-1.232 2.938-3.178 6.236-5.225 8.858-2.838 3.634-5.441 5.838-12.13 10.264-9.344 6.184-12.542 9.292-17.897 17.392-.863 1.306-2.385 3.838-3.382 5.625-.996 1.787-2.137 3.737-2.533 4.331l-.722 1.081 1.352 1.919c3.987 5.655 14.92 17.032 24.908 25.92 15.024 13.37 36.89 28.084 54.748 36.842 4.431 2.173 14.238 6.716 14.587 6.757.117.014-.375-.653-1.093-1.482m32.229-13.305c1.392-4.16 2.529-7.69 2.529-7.846-.002-.284-1.75-.49-6.864-.811l-2.487-.156-6.513-9.763c-3.582-5.37-7.24-10.77-8.127-12-3.782-5.24-16.972-22.584-19.367-25.464l-.981-1.18-1.702-9.297a2096.58 2096.58 0 0 0-2.067-11.171l-2.249-11.5c-2.725-13.928-4.675-26.112-8.501-53.125-2.002-14.129-2.779-19.747-5.524-39.937-2.31-16.987-4.108-29.01-4.38-29.282-.232-.232-2.394 7.328-4.745 16.594-3.087 12.165-4.983 23.415-6.005 35.625-.138 1.65-.316 7.05-.395 12l-.145 9 1.268 11.25c2.335 20.723 4.107 35.316 5.782 47.625.42 3.094.835 6.175.921 6.847.137 1.07.987 2.469 6.829 11.25 3.669 5.515 7.686 11.603 8.926 13.528 3.298 5.117 9.7 14.848 13.602 20.671 1.872 2.794 4.028 6.035 4.792 7.204 1.711 2.615 1.97 2.861 8.93 8.453 3.094 2.486 6.75 5.437 8.125 6.557s4.694 3.791 7.375 5.934c2.681 2.144 5.606 4.493 6.5 5.22.894.728 1.697 1.326 1.784 1.329.088.004 1.298-3.396 2.689-7.555m6.751-42.688c.288-3.644.58-7.525.648-8.625l.126-2-3.312-2.158c-6.988-4.553-14.776-10.532-18.186-13.961-3.029-3.046-6.956-7.687-7.619-9.006-.679-1.35-2.985-10.286-4.354-16.875-1.915-9.212-3.664-23.184-6.162-49.209-.223-2.316-.351-4.264-.285-4.33.066-.066 1.927 1.426 4.136 3.314l4.016 3.433.277 1.396c1.45 7.303 8.451 31.189 12.208 41.652 1.965 5.473 2.995 6.374 15.49 13.531 2.245 1.286 4.13 2.338 4.188 2.338.058 0 .11-8.803.116-19.562.009-15.56.079-19.752.341-20.488l.331-.926-4.548-4.366c-12.925-12.409-23.549-26.466-26.599-35.198-1.297-3.713-1.246-6.16.209-10.022.691-1.837 3.155-5.597 4.301-6.566.624-.527 1.05-1.226 1.448-2.372.31-.894 1.217-2.985 2.015-4.648 1.537-3.202 3.139-5.19 4.449-5.521.367-.093 3.536.083 7.042.39 3.506.308 9.562.835 13.456 1.173 5.021.434 7.313.73 7.876 1.017.436.222 2.537 1.495 4.668 2.828a217.284 217.284 0 0 0 7.375 4.389c4.251 2.385 5.85 3.395 6.476 4.092.732.814.127.695-3.517-.691-4.498-1.712-12.082-4.223-14.459-4.788-2.076-.494-5.775-1.075-8.682-1.363-3.227-.32-6.063 1.007-8.194 3.835-1.218 1.616-3.765 6.437-5.461 10.337l-.838 1.925 1.181 3.575c1.287 3.895 1.619 4.542 1.619 3.153 0-2.021 2.601-9.232 4.053-11.237.856-1.181.085-1.196 8.447.172 2.819.461 6.7 1.072 8.625 1.358 4.108.61 9.514 2.277 12.375 3.816 5.637 3.03 22.832 14.44 22.405 14.866-.059.059-2.959-.852-6.443-2.024-9.438-3.174-21.173-6.02-26.097-6.329-2.184-.137-2.34-.111-4.625.799-1.301.518-2.994 1.257-3.764 1.643l-1.399.701-.171 2.829c-.094 1.555-.34 4.608-.547 6.784l-.377 3.955 1.266 1.461c1.026 1.185 7.54 7.485 10.259 9.924l.633.567-.1-8.869-.1-8.869h1.018c3.202 0 15.776 1.332 17.667 1.872 1.679.479 2.019.756 7.84 6.378 5.953 5.749 8.429 8.456 8.066 8.819-.169.169-1.593-.223-4.329-1.192-15.28-5.409-16.312-5.674-18.206-4.661-1.758.94-1.862 1.388-1.949 8.482l-.078 6.324 2.078.916c4.321 1.906 9.955 4.87 11.487 6.045.875.67 2.601 2.242 3.836 3.493 1.234 1.25 2.306 2.274 2.381 2.274.075 0 .631-.68 1.236-1.511 1.243-1.706 2.778-2.928 4.923-3.917 1.55-.715 1.737-.73 7.09-.538 2.145.078 2.512.022 3.794-.577 1.792-.837 3.421-2.33 4.297-3.939.374-.688 1.184-2.688 1.799-4.446 1.528-4.368 2.482-6.173 4.179-7.91 1.43-1.464 1.455-1.477 2.575-1.323 2.734.375 6.859 2.589 11.814 6.344 2.549 1.931 3.078 2.244 2.953 1.745-.084-.334-.265-1.4-.403-2.368-.137-.968-.416-2.812-.619-4.098-.888-5.608-2.079-18.022-2.623-27.337-.145-2.475-.33-5.344-.412-6.375-.082-1.031-.241-9.075-.353-17.875-.162-12.768-.284-16.48-.603-18.375l-.528-3.154c-.124-.741-.198-.786-1.562-.94-7.114-.806-14.98-3.698-20.998-7.722-2.363-1.581-5.81-4.493-5.81-4.91 0-.445 5.156-6.51 7.963-9.366 5.259-5.35 9.642-8.534 13.614-9.892 1.133-.387 1.287-.52 1.211-1.042-.27-1.869-3.554-10.224-4.017-10.224-.141 0-1.357 2.006-5.679 9.375l-1.467 2.5-.151-1.875c-.082-1.031-.442-3.394-.8-5.25-1.156-6.01-1.276-5.223 1.257-8.22 1.207-1.426 2.353-2.812 2.549-3.08.33-.452.022-.818-4.498-5.343-2.668-2.671-4.924-4.857-5.01-4.857-.335 0-4.012 7.696-4.143 8.67-.163 1.218.333 12.943.762 18.02.205 2.422.219 3.538.043 3.48-.323-.106-2.229-4.575-4.124-9.67a969.977 969.977 0 0 0-3.236-8.534l-1.794-4.658.766-3.217a134.906 134.906 0 0 1 1.78-6.547c.558-1.831.958-3.476.889-3.654-.068-.179-.949-.772-1.957-1.32a416.9 416.9 0 0 1-4.405-2.445c-2.336-1.316-2.627-1.42-3.168-1.13-.582.311-.817.29-2.933-.265-.855-.224-.93-.318-1-1.263l-.077-1.021-2.375-.988c-7.697-3.204-16.276-4.678-23.226-3.991l-1.602.158 3.201 2.625c3.553 2.914 9.647 8.059 16.732 14.125 2.569 2.2 5.369 4.594 6.221 5.32 1.78 1.517 1.716 1.329 2.288 6.68.442 4.133.492 4.468 2.526 16.951.78 4.785 1.346 8.772 1.258 8.86-.284.283-.798-.491-2.782-4.186a1042.295 1042.295 0 0 0-5.03-9.196c-2.214-4.003-3.298-6.255-3.85-8-2.099-6.644-1.932-6.309-3.736-7.494-2.472-1.624-11.574-6.021-19.25-9.3-7.626-3.256-10.461-4.391-10.587-4.238-1.02 1.244-2.663 3.52-2.663 3.689 0 .124.456.298 1.012.387 1.548.248 5.645 1.606 7.727 2.561 1.614.741 2.258 1.259 4.805 3.866 4.711 4.819 5.205 5.586 9.56 14.825.772 1.637 1.354 3.026 1.294 3.086-.39.389-2.066-1.09-9.112-8.037l-7.911-7.8-6.875-.438c-3.781-.24-7.466-.495-8.188-.567l-1.312-.13v-1.857c0-1.801-.018-1.857-.608-1.857-.364 0-.66-.176-.736-.438-.128-.435-1.952-10.706-3.387-19.072-.815-4.751-1.152-5.748-4.267-12.628-2.465-5.443-5.206-10.868-7.698-15.237-2.393-4.193-5.514-9.125-5.774-9.125-.488 0-2.559 6.424-3.546 11-2.069 9.598-1.576 17.268 1.753 27.25 1.843 5.527 1.843 5.528 1.499 7.216-.476 2.337-1.712 4.288-8.236 13-11.476 15.327-14.894 20.84-21.647 34.915l-2.282 4.757.448 2.618c.246 1.44 1.135 6.838 1.974 11.994.84 5.156 1.693 10.275 1.895 11.375.202 1.1.991 5.6 1.752 10 1.66 9.587 1.943 11.219 3.716 21.375 2.244 12.854 8.701 51.232 10.515 62.5 1.329 8.251 4.355 26.755 4.517 27.625.078.413.299 1.627.492 2.698.21 1.167.563 2.219.881 2.625 2.813 3.591 9.355 10.074 16.864 16.71 7.172 6.338 23.917 20.638 24.027 20.52.027-.029.285-3.034.572-6.678m107.194-175.529c3.266-1.153 8.507-3.311 10.128-4.172l1.42-.755-.92-.606c-2.838-1.869-13.247-7.32-13.498-7.069-.054.054.046.921.224 1.927.368 2.088.453 7.878.148 10.016-.132.923-.117 1.438.042 1.438.136 0 1.242-.35 2.456-.779m-27.472-2.783c-.926-3.6-.868-7.452.205-13.724l.156-.91-1.091.206c-1.772.334-5.376 1.685-8.624 3.232-3.19 1.52-6.592 3.58-6.592 3.991 0 .743 6.368 5.424 8.907 6.547 1.277.565 6.773 2.43 7.236 2.455.172.01.101-.639-.197-1.797"/><path fill="#FCFDFD" stroke="#FCFDFD" d="M257 434.164c-.894-.727-3.819-3.076-6.5-5.22-2.681-2.143-6-4.814-7.375-5.934s-5.031-4.071-8.125-6.557c-6.96-5.592-7.219-5.838-8.93-8.453-.764-1.169-2.92-4.41-4.792-7.204-3.902-5.823-10.304-15.554-13.602-20.671-1.24-1.925-5.257-8.013-8.926-13.528-5.842-8.781-6.692-10.18-6.829-11.25-.086-.672-.501-3.753-.921-6.847-1.675-12.309-3.447-26.902-5.782-47.625l-1.268-11.25.145-9c.079-4.95.257-10.35.395-12 1.022-12.21 2.918-23.46 6.005-35.625 2.351-9.266 4.513-16.826 4.745-16.594.272.272 2.07 12.295 4.38 29.282 2.745 20.19 3.522 25.808 5.524 39.937 3.826 27.013 5.776 39.197 8.501 53.125l2.249 11.5c.2 1.031 1.131 6.058 2.067 11.171l1.702 9.297.981 1.18c2.395 2.88 15.585 20.224 19.367 25.464.887 1.23 4.545 6.63 8.127 12l6.513 9.763 2.487.156c5.114.321 6.862.527 6.864.811.002.491-5.051 15.408-5.218 15.401-.087-.003-.89-.601-1.784-1.329"/><path fill="#FCFDFD" stroke="#FCFDFD" d="M225 440.346c-13.505-6.205-21.196-10.38-32.375-17.575-11.511-7.408-23.195-16.144-31.623-23.645-9.988-8.888-20.921-20.265-24.908-25.92l-1.352-1.919.722-1.081c.396-.594 1.537-2.544 2.533-4.331.997-1.787 2.519-4.319 3.382-5.625 5.355-8.1 8.553-11.208 17.897-17.392 6.689-4.426 9.292-6.63 12.13-10.264 2.047-2.622 3.993-5.92 5.225-8.858.906-2.161.985-2.27 1.158-1.59.206.808 4.886 31.482 5.738 37.604l.539 3.875 2.183 4.125c3.819 7.217 6.423 12.345 18.277 36l11.588 23.125 2.755 2.977c8.163 8.819 11.811 12.914 11.468 12.873-.117-.014-2.518-1.085-5.337-2.379M262.239 387.453c-16.712-14.107-28.031-24.317-32.429-29.251-3.584-4.022-3.538-3.95-3.93-6.129a493.559 493.559 0 0 0-.492-2.698c-.162-.87-3.188-19.374-4.517-27.625-1.814-11.268-8.271-49.646-10.515-62.5a11305.634 11305.634 0 0 1-3.716-21.375c-.761-4.4-1.55-8.9-1.752-10-.202-1.1-1.055-6.219-1.895-11.375a2540.53 2540.53 0 0 0-1.974-11.994l-.448-2.618 2.282-4.757c6.753-14.075 10.171-19.588 21.647-34.915 6.524-8.712 7.76-10.663 8.236-13 .344-1.688.344-1.689-1.499-7.216-3.329-9.982-3.822-17.652-1.753-27.25.987-4.576 3.058-11 3.546-11 .26 0 3.381 4.932 5.774 9.125 2.492 4.369 5.233 9.794 7.698 15.237 3.115 6.88 3.452 7.877 4.267 12.628 1.435 8.366 3.259 18.637 3.387 19.072.076.262.372.438.736.438.59 0 .608.056.608 1.857v1.857l1.312.13c.722.072 4.407.327 8.188.567l6.875.438 7.911 7.8c7.046 6.947 8.722 8.426 9.112 8.037.06-.06-.522-1.449-1.294-3.086-4.355-9.239-4.849-10.006-9.56-14.825-2.547-2.607-3.191-3.125-4.805-3.866-2.082-.955-6.179-2.313-7.727-2.561-.556-.089-1.012-.263-1.012-.387 0-.169 1.643-2.445 2.663-3.689.126-.153 2.961.982 10.587 4.238 7.676 3.279 16.778 7.676 19.25 9.3 1.804 1.185 1.637.85 3.736 7.494.552 1.745 1.636 3.997 3.85 8 1.696 3.064 3.959 7.202 5.03 9.196 1.984 3.695 2.498 4.469 2.782 4.186.088-.088-.478-4.075-1.258-8.86-2.034-12.483-2.084-12.818-2.526-16.951-.572-5.351-.508-5.163-2.288-6.68-.852-.726-3.652-3.12-6.221-5.32-7.085-6.066-13.179-11.211-16.732-14.125l-3.201-2.625 1.602-.158c6.95-.687 15.529.787 23.226 3.991l2.375.988.077 1.021c.07.945.145 1.039 1 1.263 2.116.555 2.351.576 2.933.265.541-.29.832-.186 3.168 1.13a416.9 416.9 0 0 0 4.405 2.445c1.008.548 1.889 1.141 1.957 1.32.069.178-.331 1.823-.889 3.654a134.906 134.906 0 0 0-1.78 6.547l-.766 3.217 1.794 4.658a969.977 969.977 0 0 1 3.236 8.534c1.895 5.095 3.801 9.564 4.124 9.67.176.058.162-1.058-.043-3.48-.429-5.077-.925-16.802-.762-18.02.131-.974 3.808-8.67 4.143-8.67.086 0 2.342 2.186 5.01 4.857 4.52 4.525 4.828 4.891 4.498 5.343-.196.268-1.342 1.654-2.549 3.08-2.533 2.997-2.413 2.21-1.257 8.22.358 1.856.718 4.219.8 5.25l.151 1.875 1.467-2.5c4.322-7.369 5.538-9.375 5.679-9.375.463 0 3.747 8.355 4.017 10.224.076.522-.078.655-1.211 1.042-3.972 1.358-8.355 4.542-13.614 9.892-2.807 2.856-7.963 8.921-7.963 9.366 0 .417 3.447 3.329 5.81 4.91 6.018 4.024 13.884 6.916 20.998 7.722 1.364.154 1.438.199 1.562.94l.528 3.154c.319 1.895.441 5.607.603 18.375.112 8.8.271 16.844.353 17.875.082 1.031.267 3.9.412 6.375.544 9.315 1.735 21.729 2.623 27.337.203 1.286.482 3.13.619 4.098.138.968.319 2.034.403 2.368.125.499-.404.186-2.953-1.745-4.955-3.755-9.08-5.969-11.814-6.344-1.12-.154-1.145-.141-2.575 1.323-1.697 1.737-2.651 3.542-4.179 7.91-.615 1.758-1.425 3.758-1.799 4.446-.876 1.609-2.505 3.102-4.297 3.939-1.282.599-1.649.655-3.794.577-5.353-.192-5.54-.177-7.09.538-2.145.989-3.68 2.211-4.923 3.917-.605.831-1.161 1.511-1.236 1.511-.075 0-1.147-1.024-2.381-2.274-1.235-1.251-2.961-2.823-3.836-3.493-1.532-1.175-7.166-4.139-11.487-6.045l-2.078-.916.078-6.324c.087-7.094.191-7.542 1.949-8.482 1.894-1.013 2.926-.748 18.206 4.661 2.736.969 4.16 1.361 4.329 1.192.363-.363-2.113-3.07-8.066-8.819-5.821-5.622-6.161-5.899-7.84-6.378-1.891-.54-14.465-1.872-17.667-1.872h-1.018l.1 8.869.1 8.869-.633-.567c-2.719-2.439-9.233-8.739-10.259-9.924l-1.266-1.461.377-3.955c.207-2.176.453-5.229.547-6.784l.171-2.829 1.399-.701c.77-.386 2.463-1.125 3.764-1.643 2.285-.91 2.441-.936 4.625-.799 4.924.309 16.659 3.155 26.097 6.329 3.484 1.172 6.384 2.083 6.443 2.024.427-.426-16.768-11.836-22.405-14.866-2.861-1.539-8.267-3.206-12.375-3.816a746.709 746.709 0 0 1-8.625-1.358c-8.362-1.368-7.591-1.353-8.447-.172-1.452 2.005-4.053 9.216-4.053 11.237 0 1.389-.332.742-1.619-3.153l-1.181-3.575.838-1.925c1.696-3.9 4.243-8.721 5.461-10.337 2.131-2.828 4.967-4.155 8.194-3.835 2.907.288 6.606.869 8.682 1.363 2.377.565 9.961 3.076 14.459 4.788 3.644 1.386 4.249 1.505 3.517.691-.626-.697-2.225-1.707-6.476-4.092a217.284 217.284 0 0 1-7.375-4.389c-2.131-1.333-4.232-2.606-4.668-2.828-.563-.287-2.855-.583-7.876-1.017-3.894-.338-9.95-.865-13.456-1.173-3.506-.307-6.675-.483-7.042-.39-1.31.331-2.912 2.319-4.449 5.521-.798 1.663-1.705 3.754-2.015 4.648-.398 1.146-.824 1.845-1.448 2.372-1.146.969-3.61 4.729-4.301 6.566-.875 2.324-1.305 4.767-1.126 6.397.374 3.394 3.381 9.857 6.941 14.915 6.108 8.68 12.738 16.384 20.575 23.908l4.548 4.366-.331.926c-.262.736-.332 4.928-.341 20.488-.006 10.759-.058 19.562-.116 19.562-.119 0-7.081-3.974-10.578-6.039-2.831-1.672-5.932-4.086-7.075-5.509-.958-1.191-2.238-4.563-4.822-12.702-4.374-13.774-8.287-27.611-9.411-33.271l-.277-1.396-4.016-3.433c-2.209-1.888-4.07-3.38-4.136-3.314-.235.236 2.243 24.668 3.554 35.039.95 7.511 1.984 14.129 2.893 18.5 1.369 6.589 3.675 15.525 4.354 16.875.663 1.319 4.59 5.96 7.619 9.006 3.41 3.429 11.198 9.408 18.186 13.961l3.312 2.158-.126 2c-.189 3.021-1.164 15.243-1.22 15.303-.027.029-2.463-1.985-5.413-4.475m15.999-165.074c5.94-.828 10.482-2.105 15.546-4.373 5.202-2.328 11.462-6.413 13.781-8.992 1.026-1.142 2.935-4.377 2.935-4.975 0-.445-3.827-5.091-5.266-6.393-3.938-3.564-12.956-8.119-20.265-10.237-3.166-.917-8.74-2.105-11.969-2.55-4.55-.628-15.763-.765-20.25-.248-10.494 1.209-18.764 4.521-27.25 10.912-3.749 2.823-5.752 5.137-8.025 9.273l-.931 1.694 1.415.844c8 4.77 13.325 7.37 20.611 10.062 6.616 2.445 14.876 4.452 20.93 5.086 1.444.15 2.962.32 3.375.376 1.752.236 12.669-.104 15.363-.479"/><path stroke="#000" d="M262.875 222.858c-.413-.056-1.931-.226-3.375-.376-6.054-.634-14.314-2.641-20.93-5.086-7.286-2.692-12.611-5.292-20.611-10.062l-1.415-.844.931-1.694c2.273-4.136 4.276-6.45 8.025-9.273 8.486-6.391 16.756-9.703 27.25-10.912 4.487-.517 15.7-.38 20.25.248 3.229.445 8.803 1.633 11.969 2.55 7.309 2.118 16.327 6.673 20.265 10.237 1.439 1.302 5.266 5.948 5.266 6.393 0 .598-1.909 3.833-2.935 4.975-2.319 2.579-8.579 6.664-13.781 8.992-7.606 3.406-14.098 4.706-24.284 4.862-3.231.05-6.212.045-6.625-.01m22.427-8.483c3.128-.633 7.682-1.971 11.323-3.325 2.839-1.056 5.625-2.331 5.625-2.574 0-.114-.984-1.072-2.188-2.13-4.317-3.792-10.878-7.636-15.978-9.36-2.757-.932-2.898-.934-2.557-.048.677 1.761 1.053 5.069 1.043 9.187-.008 3.809-.148 5.396-.711 8.063-.108.512-.074.812.093.812.146 0 1.653-.281 3.35-.625m-42.65-5.937c-.963-3.468-1.297-10.126-.673-13.402.166-.873.246-1.644.177-1.714-.206-.205-5.092.916-7.481 1.716a52.818 52.818 0 0 0-4.131 1.611c-2.034.921-5.794 3.097-5.794 3.352 0 .185 7.818 4.564 10.72 6.005 2.107 1.046 6.718 2.981 7.122 2.99.119.002.146-.249.06-.558"/><path fill="#FCFDFD" stroke="#FCFDFD" d="M345 207.77c-3.778-1.249-4.908-1.766-7.352-3.359-2.218-1.445-5.648-4.287-5.648-4.678 0-.411 3.402-2.471 6.592-3.991 3.248-1.547 6.852-2.898 8.624-3.232l1.091-.206-.156.91c-1.073 6.272-1.131 10.124-.205 13.724.298 1.158.369 1.807.197 1.797-.147-.008-1.562-.442-3.143-.965M372.92 209.062c.305-2.138.22-7.928-.148-10.016-.178-1.006-.278-1.873-.224-1.927.251-.251 10.66 5.2 13.498 7.069l.92.606-1.42.755c-2.326 1.235-11.771 4.951-12.584 4.951-.159 0-.174-.515-.042-1.438M281.859 214.188c.563-2.667.703-4.254.711-8.063.01-4.118-.366-7.426-1.043-9.187-.341-.886-.2-.884 2.557.048 5.1 1.724 11.661 5.568 15.978 9.36 1.204 1.058 2.188 2.016 2.188 2.13 0 .454-5.484 2.646-10.744 4.296-2.623.823-8.648 2.228-9.554 2.228-.167 0-.201-.3-.093-.812M239.97 208.018a78.877 78.877 0 0 1-4.5-2.012c-2.902-1.441-10.72-5.82-10.72-6.005 0-.255 3.76-2.431 5.794-3.352a52.818 52.818 0 0 1 4.131-1.611c2.389-.8 7.275-1.921 7.481-1.716.069.07-.011.841-.177 1.714-.624 3.276-.29 9.934.673 13.402.086.309.059.56-.06.558-.12-.003-1.299-.442-2.622-.978"/></svg>